<svg width="94" height="47" fill="none" xmlns="http://www.w3.org/2000/svg"><path d="M45.5 13h47.67v-1H45.5v1Z" fill="#333"/><path d="M75.298 1.195 93.059 13l.441-1.195L75.738 0l-.44 1.195Z" fill="#333"/><path d="M48.5 1H.83v1.077H48.5V1Z" fill="#0C797A"/><path d="M18.702 13.713.941 1 .5 2.287 18.262 15l.44-1.287ZM49.172 35.625l-2.578 9.578h-.844l2.578-9.578h.844Z" fill="#0C797A"/><path d="M29.5 41.16c-.856 0-1.585-.234-2.188-.7-.602-.47-1.062-1.15-1.38-2.04-.318-.894-.477-1.973-.477-3.238 0-1.258.159-2.332.477-3.222.322-.894.784-1.576 1.386-2.045.606-.474 1.333-.71 2.182-.71s1.574.236 2.176.71c.606.47 1.068 1.151 1.387 2.045.322.89.482 1.964.482 3.222 0 1.265-.159 2.344-.477 3.238-.318.89-.778 1.57-1.38 2.04-.603.466-1.332.7-2.188.7Zm0-1.25c.849 0 1.508-.41 1.977-1.228.47-.818.705-1.985.705-3.5 0-1.008-.108-1.866-.324-2.574-.212-.708-.519-1.248-.92-1.62a2.032 2.032 0 0 0-1.438-.556c-.84 0-1.498.415-1.972 1.244-.473.826-.71 1.994-.71 3.506 0 1.007.106 1.863.318 2.568.213.705.517 1.24.915 1.608.402.367.885.551 1.449.551Zm10.295-10.546V41h-1.409V30.84h-.068l-2.84 1.887v-1.431l2.908-1.932h1.41Z" fill="#333"/><path d="M56.938 45.11c-.589 0-1.09-.16-1.504-.481-.414-.323-.73-.79-.95-1.402-.218-.615-.328-1.357-.328-2.227 0-.865.11-1.603.328-2.215.222-.614.54-1.083.953-1.406.417-.326.917-.488 1.5-.488.584 0 1.083.162 1.497.488.416.323.734.792.953 1.406.221.612.332 1.35.332 2.215 0 .87-.11 1.612-.328 2.227-.22.612-.535 1.079-.95 1.402-.414.32-.915.48-1.504.48Zm0-.86c.583 0 1.036-.281 1.359-.844.323-.562.484-1.364.484-2.406 0-.693-.074-1.283-.222-1.77-.146-.486-.357-.858-.633-1.113a1.397 1.397 0 0 0-.989-.383c-.578 0-1.03.285-1.355.856-.325.568-.488 1.37-.488 2.41 0 .693.073 1.281.218 1.766.146.484.356.852.63 1.105.275.253.608.379.995.379Zm6.968.86a3.4 3.4 0 0 1-1.379-.266 2.362 2.362 0 0 1-.957-.739A1.984 1.984 0 0 1 61.187 43h.985c.02.258.11.48.266.668.156.185.36.328.613.43.252.101.532.152.84.152.343 0 .648-.06.914-.18.265-.12.474-.286.625-.5.15-.213.226-.46.226-.742 0-.294-.073-.553-.219-.777a1.448 1.448 0 0 0-.64-.532c-.281-.127-.625-.19-1.031-.19h-.641v-.86h.64c.318 0 .597-.058.837-.172a1.299 1.299 0 0 0 .773-1.219c0-.27-.06-.506-.18-.707a1.23 1.23 0 0 0-.507-.469 1.644 1.644 0 0 0-.766-.168c-.276 0-.537.051-.781.153-.243.099-.44.243-.594.433a1.129 1.129 0 0 0-.25.68h-.938c.016-.42.142-.786.38-1.102.236-.317.546-.565.929-.742a3.005 3.005 0 0 1 1.27-.265c.494 0 .919.1 1.273.3.354.198.626.46.816.786.19.325.285.677.285 1.054 0 .45-.118.835-.355 1.153a1.802 1.802 0 0 1-.957.66v.062c.505.084.9.298 1.184.645.283.343.425.77.425 1.277 0 .435-.118.826-.355 1.172a2.415 2.415 0 0 1-.961.813 3.127 3.127 0 0 1-1.387.296Z" fill="#0C797A"/></svg>